<?xml version="1.0" standalone="no"?>
<!DOCTYPE svg PUBLIC "-//W3C//DTD SVG 20010904//EN"
 "http://www.w3.org/TR/2001/REC-SVG-20010904/DTD/svg10.dtd">
<svg version="1.0" xmlns="http://www.w3.org/2000/svg"
 width="492.000000pt" height="474.000000pt" viewBox="0 0 492.000000 474.000000"
 preserveAspectRatio="xMidYMid meet">

<g transform="translate(0.000000,474.000000) scale(0.100000,-0.100000)"
fill="#000000" stroke="none">
<path d="M1040 2400 l0 -721 58 3 57 3 0 715 0 715 -57 3 -58 3 0 -721z"/>
<path d="M1270 2400 l0 -720 55 0 55 0 0 720 0 720 -55 0 -55 0 0 -720z"/>
<path d="M1500 2810 l0 -310 225 0 225 0 0 50 0 50 -167 2 -168 3 -3 83 -3 82
111 0 110 0 0 50 0 50 -110 0 -111 0 3 73 3 72 163 3 162 2 0 50 0 50 -220 0
-220 0 0 -310z"/>
<path d="M2020 2810 l0 -310 55 0 55 0 0 310 0 310 -55 0 -55 0 0 -310z"/>
<path d="M2355 2939 c-53 -12 -113 -62 -136 -113 -40 -87 -20 -215 43 -273 58
-54 192 -71 273 -34 38 17 95 72 95 91 0 5 -20 16 -43 25 l-44 17 -32 -32
c-30 -31 -35 -32 -93 -28 -51 4 -65 9 -85 32 -45 53 -39 56 137 56 l160 0 0
58 c-1 103 -53 176 -145 201 -46 13 -74 13 -130 0z m110 -89 c21 -8 55 -60 55
-85 0 -3 -47 -5 -105 -5 -93 0 -105 2 -105 18 1 56 89 97 155 72z"/>
<path d="M3225 2941 c-47 -12 -71 -28 -109 -72 -89 -104 -61 -290 51 -345 47
-23 159 -30 208 -14 36 12 115 80 115 99 0 5 -21 16 -46 25 l-46 16 -28 -30
c-24 -26 -35 -30 -80 -30 -44 0 -56 4 -81 29 -56 57 -47 61 126 61 l155 0 0
53 c0 76 -41 154 -97 185 -46 25 -121 35 -168 23z m104 -96 c30 -15 41 -33 41
-66 0 -17 -8 -19 -95 -19 -84 0 -95 2 -95 18 0 62 85 101 149 67z"/>
<path d="M3734 2936 c-17 -8 -39 -24 -48 -37 l-16 -23 0 32 0 32 -60 0 -60 0
2 -217 3 -218 55 0 55 0 5 147 c5 138 6 148 29 172 43 45 113 30 126 -27 3
-12 6 -83 8 -157 l2 -135 55 0 55 0 0 165 c0 180 -7 209 -66 253 -34 25 -105
31 -145 13z"/>
<path d="M2640 2935 c0 -12 153 -410 163 -422 5 -7 31 -13 57 -13 43 0 49 3
58 28 84 230 142 396 142 403 0 5 -24 9 -53 9 l-53 0 -44 -137 c-24 -76 -46
-142 -50 -146 -4 -5 -29 56 -56 135 l-49 143 -57 3 c-32 2 -58 0 -58 -3z"/>
<path d="M2430 1990 l0 -310 55 0 c53 0 55 1 55 26 l0 26 30 -25 c59 -50 156
-47 217 6 114 100 98 328 -27 392 -61 30 -139 25 -192 -15 l-28 -21 0 116 0
115 -55 0 -55 0 0 -310z m280 12 c51 -51 49 -162 -4 -211 -36 -34 -98 -34
-132 0 -52 52 -51 163 1 215 35 35 97 33 135 -4z"/>
<path d="M1500 1985 l0 -305 195 0 195 0 0 50 0 49 -137 3 -138 3 -3 253 -2
252 -55 0 -55 0 0 -305z"/>
<path d="M3017 2118 c-47 -13 -102 -65 -110 -104 -15 -80 31 -132 144 -159 75
-18 119 -38 119 -55 0 -22 -34 -40 -75 -40 -32 0 -51 7 -74 26 l-30 25 -46
-27 c-44 -25 -45 -27 -29 -45 10 -11 41 -31 71 -45 45 -23 63 -26 123 -22 77
4 109 21 148 78 27 40 28 75 2 117 -24 41 -61 59 -152 78 -40 9 -79 22 -87 30
-19 18 -7 43 25 56 36 13 77 3 112 -26 l28 -24 43 26 43 25 -24 25 c-52 56
-154 83 -231 61z"/>
<path d="M2045 2106 c-34 -15 -95 -79 -95 -101 0 -7 -3 -20 -6 -29 -5 -14 3
-16 55 -16 54 0 61 2 61 19 0 48 118 72 155 31 29 -32 12 -46 -72 -64 -159
-34 -206 -68 -206 -148 0 -56 24 -92 74 -112 68 -27 151 -14 201 31 17 15 18
14 18 -10 0 -26 2 -27 56 -27 l56 0 -4 168 c-3 192 -12 218 -83 252 -49 24
-163 27 -210 6z m185 -243 c0 -74 -89 -135 -149 -102 -31 17 -39 60 -16 79 14
12 122 46 153 49 7 1 12 -11 12 -26z"/>
</g>
</svg>
